<svg width="86" height="86" viewBox="0 0 86 86" fill="none" xmlns="http://www.w3.org/2000/svg">
<path d="M81.8125 0.8125H4.1875C2.3207 0.8125 0.8125 2.3207 0.8125 4.1875V81.8125C0.8125 83.6793 2.3207 85.1875 4.1875 85.1875H81.8125C83.6793 85.1875 85.1875 83.6793 85.1875 81.8125V4.1875C85.1875 2.3207 83.6793 0.8125 81.8125 0.8125ZM72.0672 25.4395H65.3277C60.0438 25.4395 59.0207 27.9496 59.0207 31.641V39.7727H71.6348L69.9895 52.5027H59.0207V85.1875H45.8688V52.5133H34.8684V39.7727H45.8688V30.3859C45.8688 19.491 52.5238 13.5531 62.248 13.5531C66.9098 13.5531 70.907 13.9012 72.0777 14.0594V25.4395H72.0672Z" fill="#383735"/>
</svg>
