<svg width="102" height="76" viewBox="0 0 102 76" fill="none" xmlns="http://www.w3.org/2000/svg">
<path d="M84.65 3.04999L78.25 8.04999L51 28.3L23.75 7.84999L17.35 2.84999C15.8423 1.60272 14.0018 0.82519 12.0564 0.61374C10.1111 0.40229 8.14654 0.766209 6.40604 1.66041C4.66555 2.55461 3.22564 3.9398 2.2647 5.64436C1.30377 7.34892 0.864045 9.29795 1 11.25V69.2C1 71.0035 1.71643 72.7331 2.99168 74.0083C4.26692 75.2836 5.99653 76 7.8 76H23.75V37.4L51 57.85L78.25 37.4V76H94.2C96.0035 76 97.7331 75.2836 99.0083 74.0083C100.284 72.7331 101 71.0035 101 69.2V11.25C101.094 9.3148 100.624 7.39401 99.6463 5.7211C98.6689 4.0482 97.2267 2.69522 95.4948 1.82664C93.763 0.958063 91.8161 0.611286 89.8908 0.828465C87.9656 1.04564 86.1448 1.81742 84.65 3.04999V3.04999Z" fill="#383735"/>
</svg>
