<svg width="95" height="97" viewBox="0 0 95 97" fill="none" xmlns="http://www.w3.org/2000/svg">
<path d="M47.5 37.1444C45.2631 37.1453 43.0767 37.812 41.2171 39.0602C39.3576 40.3085 37.9085 42.0823 37.0531 44.1574C36.1976 46.2324 35.9742 48.5155 36.4112 50.718C36.8481 52.9205 37.9257 54.9434 39.5077 56.5311C41.0897 58.1188 43.1052 59.1999 45.2991 59.6377C47.4931 60.0755 49.7672 59.8504 51.8337 58.9908C53.9003 58.1312 55.6666 56.6757 56.9092 54.8084C58.1519 52.9411 58.8152 50.7457 58.8152 48.5C58.8129 45.4883 57.6199 42.6006 55.4983 40.4714C53.3767 38.3422 50.4999 37.1455 47.5 37.1444V37.1444ZM73.9452 28.4159C73.3694 26.9509 72.4999 25.6203 71.3906 24.5066C70.2813 23.3929 68.9559 22.52 67.4966 21.9419C63.0435 20.177 52.4408 20.573 47.5 20.573C42.5592 20.573 31.9671 20.1621 27.5012 21.9419C26.042 22.52 24.7166 23.3929 23.6073 24.5066C22.498 25.6203 21.6285 26.9509 21.0527 28.4159C19.2969 32.8866 19.6892 43.5418 19.6892 48.4979C19.6892 53.454 19.2969 64.0964 21.0612 68.582C21.637 70.047 22.5065 71.3776 23.6158 72.4913C24.7251 73.6049 26.0504 74.4779 27.5097 75.056C31.9628 76.8208 42.5655 76.4249 47.5085 76.4249C52.4514 76.4249 63.0393 76.8357 67.5051 75.056C68.9644 74.4779 70.2898 73.6049 71.3991 72.4913C72.5083 71.3776 73.3779 70.047 73.9537 68.582C75.7243 64.1113 75.3172 53.4561 75.3172 48.5C75.3172 43.5439 75.7243 32.9036 73.9537 28.418L73.9452 28.4159ZM47.5 65.957C44.0609 65.957 40.699 64.9332 37.8395 63.015C34.98 61.0968 32.7513 58.3704 31.4352 55.1805C30.1191 51.9907 29.7748 48.4806 30.4457 45.0943C31.1167 41.708 32.7727 38.5974 35.2045 36.156C37.6364 33.7146 40.7347 32.052 44.1077 31.3784C47.4807 30.7048 50.9769 31.0505 54.1542 32.3718C57.3316 33.6931 60.0473 35.9306 61.9579 38.8014C63.8686 41.6722 64.8884 45.0473 64.8884 48.5C64.8912 50.7933 64.4433 53.0646 63.5705 55.1838C62.6976 57.3031 61.4169 59.2286 59.8017 60.8502C58.1865 62.4718 56.2685 63.7576 54.1575 64.6339C52.0466 65.5102 49.7843 65.9598 47.5 65.957V65.957ZM65.6051 34.3854C64.8023 34.3858 64.0174 34.1472 63.3497 33.6997C62.6819 33.2522 62.1614 32.616 61.8539 31.8714C61.5463 31.1269 61.4657 30.3076 61.622 29.517C61.7784 28.7264 62.1648 28.0002 62.7323 27.4301C63.2999 26.86 64.023 26.4717 64.8104 26.3143C65.5978 26.157 66.414 26.2375 67.1557 26.5459C67.8975 26.8542 68.5315 27.3765 68.9776 28.0466C69.4236 28.7167 69.6617 29.5046 69.6617 30.3106C69.664 30.8459 69.5609 31.3763 69.3585 31.8714C69.1561 32.3666 68.8583 32.8168 68.4822 33.1961C68.1061 33.5755 67.6591 33.8766 67.1668 34.0821C66.6746 34.2876 66.1468 34.3936 65.6136 34.3939L65.6051 34.3854ZM84.8214 0.8125H10.1786C7.47905 0.8125 4.89009 1.88912 2.98123 3.8055C1.07238 5.72189 0 8.32107 0 11.0312L0 85.9688C0 88.6789 1.07238 91.2781 2.98123 93.1945C4.89009 95.1109 7.47905 96.1875 10.1786 96.1875H84.8214C87.521 96.1875 90.1099 95.1109 92.0188 93.1945C93.9276 91.2781 95 88.6789 95 85.9688V11.0312C95 8.32107 93.9276 5.72189 92.0188 3.8055C90.1099 1.88912 87.521 0.8125 84.8214 0.8125V0.8125ZM81.1911 62.5508C80.9175 68.0072 79.677 72.8419 75.7095 76.8145C71.742 80.787 66.9305 82.058 61.5019 82.3177C55.9016 82.6349 39.1112 82.6349 33.5108 82.3177C28.0759 82.043 23.2771 80.7955 19.3032 76.8145C15.3294 72.8334 14.0804 67.9965 13.8217 62.5508C13.5057 56.9262 13.5057 40.0674 13.8217 34.4492C14.0952 28.9928 15.3209 24.1581 19.3032 20.1855C23.2856 16.213 28.0971 14.957 33.5108 14.6972C39.1112 14.38 55.9016 14.38 61.5019 14.6972C66.9368 14.9719 71.7504 16.2194 75.7095 20.2004C79.6685 24.1815 80.9324 29.0184 81.1911 34.4748C81.507 40.078 81.507 56.922 81.1911 62.5508Z" fill="#383735"/>
</svg>
