<svg width="88" height="88" viewBox="0 0 88 88" fill="none" xmlns="http://www.w3.org/2000/svg">
<path fill-rule="evenodd" clip-rule="evenodd" d="M1.08824e-06 7.35201C1.08824e-06 5.40214 0.774585 3.53213 2.15335 2.15336C3.53212 0.774593 5.40213 9.80125e-06 7.352 9.80125e-06H80.64C81.6063 -0.00156841 82.5634 0.187461 83.4566 0.556277C84.3497 0.925092 85.1613 1.46645 85.845 2.14935C86.5286 2.83226 87.0709 3.6433 87.4407 4.53605C87.8105 5.42879 88.0005 6.38571 88 7.35201V80.64C88.0011 81.6065 87.8115 82.5637 87.4423 83.4569C87.073 84.35 86.5313 85.1616 85.8481 85.8452C85.1648 86.5288 84.3535 87.071 83.4606 87.4408C82.5676 87.8105 81.6105 88.0005 80.644 88H7.352C6.38619 88 5.42983 87.8097 4.53759 87.44C3.64534 87.0703 2.83469 86.5284 2.15194 85.8452C1.46919 85.1621 0.927728 84.3512 0.55849 83.4587C0.189253 82.5663 -0.000524382 81.6098 1.08824e-06 80.644V7.35201ZM34.832 33.552H46.748V39.536C48.468 36.096 52.868 33 59.48 33C72.156 33 75.16 39.852 75.16 52.424V75.712H62.332V55.288C62.332 48.128 60.612 44.088 56.244 44.088C50.184 44.088 47.664 48.444 47.664 55.288V75.712H34.832V33.552ZM12.832 75.164H25.664V33H12.832V75.16V75.164ZM27.5 19.248C27.5242 20.3467 27.3287 21.4392 26.925 22.4613C26.5212 23.4834 25.9174 24.4146 25.1489 25.2001C24.3804 25.9857 23.4628 26.6099 22.4498 27.036C21.4368 27.4622 20.349 27.6817 19.25 27.6817C18.151 27.6817 17.0632 27.4622 16.0502 27.036C15.0372 26.6099 14.1196 25.9857 13.3511 25.2001C12.5826 24.4146 11.9788 23.4834 11.575 22.4613C11.1713 21.4392 10.9758 20.3467 11 19.248C11.0475 17.0914 11.9375 15.0392 13.4795 13.5308C15.0215 12.0223 17.0929 11.1777 19.25 11.1777C21.4071 11.1777 23.4785 12.0223 25.0205 13.5308C26.5625 15.0392 27.4525 17.0914 27.5 19.248V19.248Z" fill="#383735"/>
</svg>
